<mxfile host="app.diagrams.net" modified="2023-09-25T00:08:51.553Z" agent="Mozilla/5.0 (Windows NT 10.0; Win64; x64) AppleWebKit/537.36 (KHTML, like Gecko) Chrome/116.0.0.0 Safari/537.36" etag="qij354tqgJofMA81VTEx" version="21.7.5" type="device">
  <diagram name="Halaman-1" id="SM5hHPTOb4Dg72rZC5HC">
    <mxGraphModel dx="2062" dy="628" grid="1" gridSize="10" guides="1" tooltips="1" connect="1" arrows="1" fold="1" page="1" pageScale="1" pageWidth="827" pageHeight="1169" math="0" shadow="0">
      <root>
        <mxCell id="0" />
        <mxCell id="1" parent="0" />
        <mxCell id="cXZ953Jf6Xyzj8En-9Kt-3" value="" style="edgeStyle=orthogonalEdgeStyle;rounded=0;sketch=1;hachureGap=4;jiggle=2;curveFitting=1;orthogonalLoop=1;jettySize=auto;html=1;fontFamily=Architects Daughter;fontSource=https%3A%2F%2Ffonts.googleapis.com%2Fcss%3Ffamily%3DArchitects%2BDaughter;fontSize=16;" edge="1" parent="1" source="cXZ953Jf6Xyzj8En-9Kt-1" target="cXZ953Jf6Xyzj8En-9Kt-2">
          <mxGeometry relative="1" as="geometry" />
        </mxCell>
        <mxCell id="cXZ953Jf6Xyzj8En-9Kt-1" value="start" style="strokeWidth=2;html=1;shape=mxgraph.flowchart.start_1;whiteSpace=wrap;sketch=1;hachureGap=4;jiggle=2;curveFitting=1;fontFamily=Architects Daughter;fontSource=https%3A%2F%2Ffonts.googleapis.com%2Fcss%3Ffamily%3DArchitects%2BDaughter;fontSize=20;" vertex="1" parent="1">
          <mxGeometry x="340" y="30" width="120" height="70" as="geometry" />
        </mxCell>
        <mxCell id="cXZ953Jf6Xyzj8En-9Kt-5" value="" style="edgeStyle=orthogonalEdgeStyle;rounded=0;sketch=1;hachureGap=4;jiggle=2;curveFitting=1;orthogonalLoop=1;jettySize=auto;html=1;fontFamily=Architects Daughter;fontSource=https%3A%2F%2Ffonts.googleapis.com%2Fcss%3Ffamily%3DArchitects%2BDaughter;fontSize=16;" edge="1" parent="1" source="cXZ953Jf6Xyzj8En-9Kt-2" target="cXZ953Jf6Xyzj8En-9Kt-4">
          <mxGeometry relative="1" as="geometry" />
        </mxCell>
        <mxCell id="cXZ953Jf6Xyzj8En-9Kt-2" value="input mata uang yang akan di konversi" style="shape=parallelogram;perimeter=parallelogramPerimeter;whiteSpace=wrap;html=1;fixedSize=1;fontSize=20;fontFamily=Architects Daughter;strokeWidth=2;sketch=1;hachureGap=4;jiggle=2;curveFitting=1;fontSource=https%3A%2F%2Ffonts.googleapis.com%2Fcss%3Ffamily%3DArchitects%2BDaughter;" vertex="1" parent="1">
          <mxGeometry x="310" y="140" width="180" height="110" as="geometry" />
        </mxCell>
        <mxCell id="cXZ953Jf6Xyzj8En-9Kt-7" value="" style="edgeStyle=orthogonalEdgeStyle;rounded=0;sketch=1;hachureGap=4;jiggle=2;curveFitting=1;orthogonalLoop=1;jettySize=auto;html=1;fontFamily=Architects Daughter;fontSource=https%3A%2F%2Ffonts.googleapis.com%2Fcss%3Ffamily%3DArchitects%2BDaughter;fontSize=16;" edge="1" parent="1" source="cXZ953Jf6Xyzj8En-9Kt-4" target="cXZ953Jf6Xyzj8En-9Kt-6">
          <mxGeometry relative="1" as="geometry" />
        </mxCell>
        <mxCell id="cXZ953Jf6Xyzj8En-9Kt-4" value="input mata uang yang akan dikonversi menjadi" style="shape=parallelogram;perimeter=parallelogramPerimeter;whiteSpace=wrap;html=1;fixedSize=1;fontSize=20;fontFamily=Architects Daughter;strokeWidth=2;sketch=1;hachureGap=4;jiggle=2;curveFitting=1;fontSource=https%3A%2F%2Ffonts.googleapis.com%2Fcss%3Ffamily%3DArchitects%2BDaughter;" vertex="1" parent="1">
          <mxGeometry x="270" y="330" width="260" height="120" as="geometry" />
        </mxCell>
        <mxCell id="cXZ953Jf6Xyzj8En-9Kt-9" value="" style="edgeStyle=orthogonalEdgeStyle;rounded=0;sketch=1;hachureGap=4;jiggle=2;curveFitting=1;orthogonalLoop=1;jettySize=auto;html=1;fontFamily=Architects Daughter;fontSource=https%3A%2F%2Ffonts.googleapis.com%2Fcss%3Ffamily%3DArchitects%2BDaughter;fontSize=16;" edge="1" parent="1" source="cXZ953Jf6Xyzj8En-9Kt-6" target="cXZ953Jf6Xyzj8En-9Kt-8">
          <mxGeometry relative="1" as="geometry" />
        </mxCell>
        <mxCell id="cXZ953Jf6Xyzj8En-9Kt-6" value="input jumlah" style="shape=parallelogram;perimeter=parallelogramPerimeter;whiteSpace=wrap;html=1;fixedSize=1;fontSize=20;fontFamily=Architects Daughter;strokeWidth=2;sketch=1;hachureGap=4;jiggle=2;curveFitting=1;fontSource=https%3A%2F%2Ffonts.googleapis.com%2Fcss%3Ffamily%3DArchitects%2BDaughter;" vertex="1" parent="1">
          <mxGeometry x="270" y="530" width="260" height="120" as="geometry" />
        </mxCell>
        <mxCell id="cXZ953Jf6Xyzj8En-9Kt-11" value="" style="edgeStyle=orthogonalEdgeStyle;rounded=0;sketch=1;hachureGap=4;jiggle=2;curveFitting=1;orthogonalLoop=1;jettySize=auto;html=1;fontFamily=Architects Daughter;fontSource=https%3A%2F%2Ffonts.googleapis.com%2Fcss%3Ffamily%3DArchitects%2BDaughter;fontSize=16;" edge="1" parent="1" source="cXZ953Jf6Xyzj8En-9Kt-8" target="cXZ953Jf6Xyzj8En-9Kt-10">
          <mxGeometry relative="1" as="geometry" />
        </mxCell>
        <mxCell id="cXZ953Jf6Xyzj8En-9Kt-12" value="yes" style="edgeLabel;html=1;align=center;verticalAlign=middle;resizable=0;points=[];fontSize=20;fontFamily=Architects Daughter;" vertex="1" connectable="0" parent="cXZ953Jf6Xyzj8En-9Kt-11">
          <mxGeometry x="0.0388" y="2" relative="1" as="geometry">
            <mxPoint as="offset" />
          </mxGeometry>
        </mxCell>
        <mxCell id="cXZ953Jf6Xyzj8En-9Kt-14" value="" style="edgeStyle=orthogonalEdgeStyle;rounded=0;sketch=1;hachureGap=4;jiggle=2;curveFitting=1;orthogonalLoop=1;jettySize=auto;html=1;fontFamily=Architects Daughter;fontSource=https%3A%2F%2Ffonts.googleapis.com%2Fcss%3Ffamily%3DArchitects%2BDaughter;fontSize=16;" edge="1" parent="1" source="cXZ953Jf6Xyzj8En-9Kt-8" target="cXZ953Jf6Xyzj8En-9Kt-13">
          <mxGeometry relative="1" as="geometry" />
        </mxCell>
        <mxCell id="cXZ953Jf6Xyzj8En-9Kt-8" value="if &quot;dollar&quot; to &quot;rupiah" style="rhombus;whiteSpace=wrap;html=1;fontSize=20;fontFamily=Architects Daughter;strokeWidth=2;sketch=1;hachureGap=4;jiggle=2;curveFitting=1;fontSource=https%3A%2F%2Ffonts.googleapis.com%2Fcss%3Ffamily%3DArchitects%2BDaughter;" vertex="1" parent="1">
          <mxGeometry x="320" y="700" width="160" height="170" as="geometry" />
        </mxCell>
        <mxCell id="cXZ953Jf6Xyzj8En-9Kt-47" value="" style="edgeStyle=orthogonalEdgeStyle;rounded=0;sketch=1;hachureGap=4;jiggle=2;curveFitting=1;orthogonalLoop=1;jettySize=auto;html=1;fontFamily=Architects Daughter;fontSource=https%3A%2F%2Ffonts.googleapis.com%2Fcss%3Ffamily%3DArchitects%2BDaughter;fontSize=16;" edge="1" parent="1" source="cXZ953Jf6Xyzj8En-9Kt-10" target="cXZ953Jf6Xyzj8En-9Kt-45">
          <mxGeometry relative="1" as="geometry" />
        </mxCell>
        <mxCell id="cXZ953Jf6Xyzj8En-9Kt-10" value="total x 15000" style="whiteSpace=wrap;html=1;fontSize=20;fontFamily=Architects Daughter;strokeWidth=2;sketch=1;hachureGap=4;jiggle=2;curveFitting=1;fontSource=https%3A%2F%2Ffonts.googleapis.com%2Fcss%3Ffamily%3DArchitects%2BDaughter;" vertex="1" parent="1">
          <mxGeometry x="100" y="755" width="120" height="60" as="geometry" />
        </mxCell>
        <mxCell id="cXZ953Jf6Xyzj8En-9Kt-16" value="" style="edgeStyle=orthogonalEdgeStyle;rounded=0;sketch=1;hachureGap=4;jiggle=2;curveFitting=1;orthogonalLoop=1;jettySize=auto;html=1;fontFamily=Architects Daughter;fontSource=https%3A%2F%2Ffonts.googleapis.com%2Fcss%3Ffamily%3DArchitects%2BDaughter;fontSize=16;" edge="1" parent="1" source="cXZ953Jf6Xyzj8En-9Kt-13" target="cXZ953Jf6Xyzj8En-9Kt-15">
          <mxGeometry relative="1" as="geometry" />
        </mxCell>
        <mxCell id="cXZ953Jf6Xyzj8En-9Kt-42" value="yes" style="edgeLabel;html=1;align=center;verticalAlign=middle;resizable=0;points=[];fontSize=20;fontFamily=Architects Daughter;" vertex="1" connectable="0" parent="cXZ953Jf6Xyzj8En-9Kt-16">
          <mxGeometry x="-0.1682" y="2" relative="1" as="geometry">
            <mxPoint as="offset" />
          </mxGeometry>
        </mxCell>
        <mxCell id="cXZ953Jf6Xyzj8En-9Kt-20" value="" style="edgeStyle=orthogonalEdgeStyle;rounded=0;sketch=1;hachureGap=4;jiggle=2;curveFitting=1;orthogonalLoop=1;jettySize=auto;html=1;fontFamily=Architects Daughter;fontSource=https%3A%2F%2Ffonts.googleapis.com%2Fcss%3Ffamily%3DArchitects%2BDaughter;fontSize=16;" edge="1" parent="1" source="cXZ953Jf6Xyzj8En-9Kt-13" target="cXZ953Jf6Xyzj8En-9Kt-19">
          <mxGeometry relative="1" as="geometry" />
        </mxCell>
        <mxCell id="cXZ953Jf6Xyzj8En-9Kt-43" value="no" style="edgeLabel;html=1;align=center;verticalAlign=middle;resizable=0;points=[];fontSize=20;fontFamily=Architects Daughter;" vertex="1" connectable="0" parent="cXZ953Jf6Xyzj8En-9Kt-20">
          <mxGeometry x="-0.2" y="1" relative="1" as="geometry">
            <mxPoint as="offset" />
          </mxGeometry>
        </mxCell>
        <mxCell id="cXZ953Jf6Xyzj8En-9Kt-13" value="if &quot;yen&quot; to &quot;rupiah&quot;" style="rhombus;whiteSpace=wrap;html=1;fontSize=20;fontFamily=Architects Daughter;strokeWidth=2;sketch=1;hachureGap=4;jiggle=2;curveFitting=1;fontSource=https%3A%2F%2Ffonts.googleapis.com%2Fcss%3Ffamily%3DArchitects%2BDaughter;" vertex="1" parent="1">
          <mxGeometry x="320" y="950" width="160" height="170" as="geometry" />
        </mxCell>
        <mxCell id="cXZ953Jf6Xyzj8En-9Kt-48" value="" style="edgeStyle=orthogonalEdgeStyle;rounded=0;sketch=1;hachureGap=4;jiggle=2;curveFitting=1;orthogonalLoop=1;jettySize=auto;html=1;fontFamily=Architects Daughter;fontSource=https%3A%2F%2Ffonts.googleapis.com%2Fcss%3Ffamily%3DArchitects%2BDaughter;fontSize=16;" edge="1" parent="1" source="cXZ953Jf6Xyzj8En-9Kt-15" target="cXZ953Jf6Xyzj8En-9Kt-45">
          <mxGeometry relative="1" as="geometry" />
        </mxCell>
        <mxCell id="cXZ953Jf6Xyzj8En-9Kt-15" value="total x 103" style="whiteSpace=wrap;html=1;fontSize=20;fontFamily=Architects Daughter;strokeWidth=2;sketch=1;hachureGap=4;jiggle=2;curveFitting=1;fontSource=https%3A%2F%2Ffonts.googleapis.com%2Fcss%3Ffamily%3DArchitects%2BDaughter;" vertex="1" parent="1">
          <mxGeometry x="100" y="1005" width="120" height="60" as="geometry" />
        </mxCell>
        <mxCell id="cXZ953Jf6Xyzj8En-9Kt-22" value="" style="edgeStyle=orthogonalEdgeStyle;rounded=0;sketch=1;hachureGap=4;jiggle=2;curveFitting=1;orthogonalLoop=1;jettySize=auto;html=1;fontFamily=Architects Daughter;fontSource=https%3A%2F%2Ffonts.googleapis.com%2Fcss%3Ffamily%3DArchitects%2BDaughter;fontSize=16;" edge="1" parent="1" source="cXZ953Jf6Xyzj8En-9Kt-19" target="cXZ953Jf6Xyzj8En-9Kt-21">
          <mxGeometry relative="1" as="geometry" />
        </mxCell>
        <mxCell id="cXZ953Jf6Xyzj8En-9Kt-41" value="yes" style="edgeLabel;html=1;align=center;verticalAlign=middle;resizable=0;points=[];fontSize=20;fontFamily=Architects Daughter;" vertex="1" connectable="0" parent="cXZ953Jf6Xyzj8En-9Kt-22">
          <mxGeometry x="-0.1918" y="-1" relative="1" as="geometry">
            <mxPoint as="offset" />
          </mxGeometry>
        </mxCell>
        <mxCell id="cXZ953Jf6Xyzj8En-9Kt-24" value="" style="edgeStyle=orthogonalEdgeStyle;rounded=0;sketch=1;hachureGap=4;jiggle=2;curveFitting=1;orthogonalLoop=1;jettySize=auto;html=1;fontFamily=Architects Daughter;fontSource=https%3A%2F%2Ffonts.googleapis.com%2Fcss%3Ffamily%3DArchitects%2BDaughter;fontSize=16;" edge="1" parent="1" source="cXZ953Jf6Xyzj8En-9Kt-19" target="cXZ953Jf6Xyzj8En-9Kt-23">
          <mxGeometry relative="1" as="geometry" />
        </mxCell>
        <mxCell id="cXZ953Jf6Xyzj8En-9Kt-40" value="no" style="edgeLabel;html=1;align=center;verticalAlign=middle;resizable=0;points=[];fontSize=20;fontFamily=Architects Daughter;" vertex="1" connectable="0" parent="cXZ953Jf6Xyzj8En-9Kt-24">
          <mxGeometry x="0.0971" y="-4" relative="1" as="geometry">
            <mxPoint as="offset" />
          </mxGeometry>
        </mxCell>
        <mxCell id="cXZ953Jf6Xyzj8En-9Kt-19" value="if &quot;ringgit&quot; to &quot;rupiah&quot;" style="rhombus;whiteSpace=wrap;html=1;fontSize=20;fontFamily=Architects Daughter;strokeWidth=2;sketch=1;hachureGap=4;jiggle=2;curveFitting=1;fontSource=https%3A%2F%2Ffonts.googleapis.com%2Fcss%3Ffamily%3DArchitects%2BDaughter;" vertex="1" parent="1">
          <mxGeometry x="320" y="1200" width="160" height="170" as="geometry" />
        </mxCell>
        <mxCell id="cXZ953Jf6Xyzj8En-9Kt-49" value="" style="edgeStyle=orthogonalEdgeStyle;rounded=0;sketch=1;hachureGap=4;jiggle=2;curveFitting=1;orthogonalLoop=1;jettySize=auto;html=1;fontFamily=Architects Daughter;fontSource=https%3A%2F%2Ffonts.googleapis.com%2Fcss%3Ffamily%3DArchitects%2BDaughter;fontSize=16;" edge="1" parent="1" source="cXZ953Jf6Xyzj8En-9Kt-21" target="cXZ953Jf6Xyzj8En-9Kt-45">
          <mxGeometry relative="1" as="geometry" />
        </mxCell>
        <mxCell id="cXZ953Jf6Xyzj8En-9Kt-21" value="total x 3300" style="whiteSpace=wrap;html=1;fontSize=20;fontFamily=Architects Daughter;strokeWidth=2;sketch=1;hachureGap=4;jiggle=2;curveFitting=1;fontSource=https%3A%2F%2Ffonts.googleapis.com%2Fcss%3Ffamily%3DArchitects%2BDaughter;" vertex="1" parent="1">
          <mxGeometry x="100" y="1255" width="120" height="60" as="geometry" />
        </mxCell>
        <mxCell id="cXZ953Jf6Xyzj8En-9Kt-26" value="" style="edgeStyle=orthogonalEdgeStyle;rounded=0;sketch=1;hachureGap=4;jiggle=2;curveFitting=1;orthogonalLoop=1;jettySize=auto;html=1;fontFamily=Architects Daughter;fontSource=https%3A%2F%2Ffonts.googleapis.com%2Fcss%3Ffamily%3DArchitects%2BDaughter;fontSize=16;" edge="1" parent="1" source="cXZ953Jf6Xyzj8En-9Kt-23" target="cXZ953Jf6Xyzj8En-9Kt-25">
          <mxGeometry relative="1" as="geometry" />
        </mxCell>
        <mxCell id="cXZ953Jf6Xyzj8En-9Kt-38" value="yes" style="edgeLabel;html=1;align=center;verticalAlign=middle;resizable=0;points=[];fontSize=20;fontFamily=Architects Daughter;" vertex="1" connectable="0" parent="cXZ953Jf6Xyzj8En-9Kt-26">
          <mxGeometry x="-0.0976" y="-3" relative="1" as="geometry">
            <mxPoint as="offset" />
          </mxGeometry>
        </mxCell>
        <mxCell id="cXZ953Jf6Xyzj8En-9Kt-28" value="" style="edgeStyle=orthogonalEdgeStyle;rounded=0;sketch=1;hachureGap=4;jiggle=2;curveFitting=1;orthogonalLoop=1;jettySize=auto;html=1;fontFamily=Architects Daughter;fontSource=https%3A%2F%2Ffonts.googleapis.com%2Fcss%3Ffamily%3DArchitects%2BDaughter;fontSize=16;" edge="1" parent="1" source="cXZ953Jf6Xyzj8En-9Kt-23" target="cXZ953Jf6Xyzj8En-9Kt-27">
          <mxGeometry relative="1" as="geometry" />
        </mxCell>
        <mxCell id="cXZ953Jf6Xyzj8En-9Kt-39" value="no" style="edgeLabel;html=1;align=center;verticalAlign=middle;resizable=0;points=[];fontSize=20;fontFamily=Architects Daughter;" vertex="1" connectable="0" parent="cXZ953Jf6Xyzj8En-9Kt-28">
          <mxGeometry x="-0.2" y="1" relative="1" as="geometry">
            <mxPoint as="offset" />
          </mxGeometry>
        </mxCell>
        <mxCell id="cXZ953Jf6Xyzj8En-9Kt-23" value="if &quot;rupiah&quot; to &quot;dollar&quot;" style="rhombus;whiteSpace=wrap;html=1;fontSize=20;fontFamily=Architects Daughter;strokeWidth=2;sketch=1;hachureGap=4;jiggle=2;curveFitting=1;fontSource=https%3A%2F%2Ffonts.googleapis.com%2Fcss%3Ffamily%3DArchitects%2BDaughter;" vertex="1" parent="1">
          <mxGeometry x="320" y="1450" width="160" height="170" as="geometry" />
        </mxCell>
        <mxCell id="cXZ953Jf6Xyzj8En-9Kt-50" value="" style="edgeStyle=orthogonalEdgeStyle;rounded=0;sketch=1;hachureGap=4;jiggle=2;curveFitting=1;orthogonalLoop=1;jettySize=auto;html=1;fontFamily=Architects Daughter;fontSource=https%3A%2F%2Ffonts.googleapis.com%2Fcss%3Ffamily%3DArchitects%2BDaughter;fontSize=16;" edge="1" parent="1" source="cXZ953Jf6Xyzj8En-9Kt-25" target="cXZ953Jf6Xyzj8En-9Kt-45">
          <mxGeometry relative="1" as="geometry" />
        </mxCell>
        <mxCell id="cXZ953Jf6Xyzj8En-9Kt-25" value="total / 15000" style="whiteSpace=wrap;html=1;fontSize=20;fontFamily=Architects Daughter;strokeWidth=2;sketch=1;hachureGap=4;jiggle=2;curveFitting=1;fontSource=https%3A%2F%2Ffonts.googleapis.com%2Fcss%3Ffamily%3DArchitects%2BDaughter;" vertex="1" parent="1">
          <mxGeometry x="100" y="1505" width="120" height="60" as="geometry" />
        </mxCell>
        <mxCell id="cXZ953Jf6Xyzj8En-9Kt-30" value="" style="edgeStyle=orthogonalEdgeStyle;rounded=0;sketch=1;hachureGap=4;jiggle=2;curveFitting=1;orthogonalLoop=1;jettySize=auto;html=1;fontFamily=Architects Daughter;fontSource=https%3A%2F%2Ffonts.googleapis.com%2Fcss%3Ffamily%3DArchitects%2BDaughter;fontSize=16;" edge="1" parent="1" source="cXZ953Jf6Xyzj8En-9Kt-27" target="cXZ953Jf6Xyzj8En-9Kt-29">
          <mxGeometry relative="1" as="geometry" />
        </mxCell>
        <mxCell id="cXZ953Jf6Xyzj8En-9Kt-36" value="no" style="edgeLabel;html=1;align=center;verticalAlign=middle;resizable=0;points=[];fontSize=20;fontFamily=Architects Daughter;" vertex="1" connectable="0" parent="cXZ953Jf6Xyzj8En-9Kt-30">
          <mxGeometry x="-0.3206" y="1" relative="1" as="geometry">
            <mxPoint as="offset" />
          </mxGeometry>
        </mxCell>
        <mxCell id="cXZ953Jf6Xyzj8En-9Kt-32" value="" style="edgeStyle=orthogonalEdgeStyle;rounded=0;sketch=1;hachureGap=4;jiggle=2;curveFitting=1;orthogonalLoop=1;jettySize=auto;html=1;fontFamily=Architects Daughter;fontSource=https%3A%2F%2Ffonts.googleapis.com%2Fcss%3Ffamily%3DArchitects%2BDaughter;fontSize=16;" edge="1" parent="1" source="cXZ953Jf6Xyzj8En-9Kt-27" target="cXZ953Jf6Xyzj8En-9Kt-31">
          <mxGeometry relative="1" as="geometry" />
        </mxCell>
        <mxCell id="cXZ953Jf6Xyzj8En-9Kt-37" value="yes" style="edgeLabel;html=1;align=center;verticalAlign=middle;resizable=0;points=[];fontSize=20;fontFamily=Architects Daughter;" vertex="1" connectable="0" parent="cXZ953Jf6Xyzj8En-9Kt-32">
          <mxGeometry x="0.1141" y="-2" relative="1" as="geometry">
            <mxPoint as="offset" />
          </mxGeometry>
        </mxCell>
        <mxCell id="cXZ953Jf6Xyzj8En-9Kt-27" value="if &quot;rupiah&quot; to &quot;yen&quot;" style="rhombus;whiteSpace=wrap;html=1;fontSize=20;fontFamily=Architects Daughter;strokeWidth=2;sketch=1;hachureGap=4;jiggle=2;curveFitting=1;fontSource=https%3A%2F%2Ffonts.googleapis.com%2Fcss%3Ffamily%3DArchitects%2BDaughter;" vertex="1" parent="1">
          <mxGeometry x="320" y="1700" width="160" height="170" as="geometry" />
        </mxCell>
        <mxCell id="cXZ953Jf6Xyzj8En-9Kt-34" value="" style="edgeStyle=orthogonalEdgeStyle;rounded=0;sketch=1;hachureGap=4;jiggle=2;curveFitting=1;orthogonalLoop=1;jettySize=auto;html=1;fontFamily=Architects Daughter;fontSource=https%3A%2F%2Ffonts.googleapis.com%2Fcss%3Ffamily%3DArchitects%2BDaughter;fontSize=16;" edge="1" parent="1" source="cXZ953Jf6Xyzj8En-9Kt-29" target="cXZ953Jf6Xyzj8En-9Kt-33">
          <mxGeometry relative="1" as="geometry" />
        </mxCell>
        <mxCell id="cXZ953Jf6Xyzj8En-9Kt-35" value="yes" style="edgeLabel;html=1;align=center;verticalAlign=middle;resizable=0;points=[];fontSize=20;fontFamily=Architects Daughter;" vertex="1" connectable="0" parent="cXZ953Jf6Xyzj8En-9Kt-34">
          <mxGeometry x="-0.0976" y="-1" relative="1" as="geometry">
            <mxPoint as="offset" />
          </mxGeometry>
        </mxCell>
        <mxCell id="cXZ953Jf6Xyzj8En-9Kt-29" value="if &quot;rupiah&quot; to &quot;ringgit&quot;" style="rhombus;whiteSpace=wrap;html=1;fontSize=20;fontFamily=Architects Daughter;strokeWidth=2;sketch=1;hachureGap=4;jiggle=2;curveFitting=1;fontSource=https%3A%2F%2Ffonts.googleapis.com%2Fcss%3Ffamily%3DArchitects%2BDaughter;" vertex="1" parent="1">
          <mxGeometry x="320" y="1950" width="160" height="170" as="geometry" />
        </mxCell>
        <mxCell id="cXZ953Jf6Xyzj8En-9Kt-51" value="" style="edgeStyle=orthogonalEdgeStyle;rounded=0;sketch=1;hachureGap=4;jiggle=2;curveFitting=1;orthogonalLoop=1;jettySize=auto;html=1;fontFamily=Architects Daughter;fontSource=https%3A%2F%2Ffonts.googleapis.com%2Fcss%3Ffamily%3DArchitects%2BDaughter;fontSize=16;" edge="1" parent="1" source="cXZ953Jf6Xyzj8En-9Kt-31" target="cXZ953Jf6Xyzj8En-9Kt-45">
          <mxGeometry relative="1" as="geometry" />
        </mxCell>
        <mxCell id="cXZ953Jf6Xyzj8En-9Kt-31" value="total / 103" style="whiteSpace=wrap;html=1;fontSize=20;fontFamily=Architects Daughter;strokeWidth=2;sketch=1;hachureGap=4;jiggle=2;curveFitting=1;fontSource=https%3A%2F%2Ffonts.googleapis.com%2Fcss%3Ffamily%3DArchitects%2BDaughter;" vertex="1" parent="1">
          <mxGeometry x="100" y="1755" width="120" height="60" as="geometry" />
        </mxCell>
        <mxCell id="cXZ953Jf6Xyzj8En-9Kt-52" value="" style="edgeStyle=orthogonalEdgeStyle;rounded=0;sketch=1;hachureGap=4;jiggle=2;curveFitting=1;orthogonalLoop=1;jettySize=auto;html=1;fontFamily=Architects Daughter;fontSource=https%3A%2F%2Ffonts.googleapis.com%2Fcss%3Ffamily%3DArchitects%2BDaughter;fontSize=16;" edge="1" parent="1" source="cXZ953Jf6Xyzj8En-9Kt-33" target="cXZ953Jf6Xyzj8En-9Kt-45">
          <mxGeometry relative="1" as="geometry" />
        </mxCell>
        <mxCell id="cXZ953Jf6Xyzj8En-9Kt-33" value="total / 3300" style="whiteSpace=wrap;html=1;fontSize=20;fontFamily=Architects Daughter;strokeWidth=2;sketch=1;hachureGap=4;jiggle=2;curveFitting=1;fontSource=https%3A%2F%2Ffonts.googleapis.com%2Fcss%3Ffamily%3DArchitects%2BDaughter;" vertex="1" parent="1">
          <mxGeometry x="100" y="2005" width="120" height="60" as="geometry" />
        </mxCell>
        <mxCell id="cXZ953Jf6Xyzj8En-9Kt-44" value="no" style="text;html=1;align=center;verticalAlign=middle;resizable=0;points=[];autosize=1;strokeColor=none;fillColor=none;fontSize=20;fontFamily=Architects Daughter;" vertex="1" parent="1">
          <mxGeometry x="380" y="883" width="40" height="40" as="geometry" />
        </mxCell>
        <mxCell id="cXZ953Jf6Xyzj8En-9Kt-54" value="" style="edgeStyle=orthogonalEdgeStyle;rounded=0;sketch=1;hachureGap=4;jiggle=2;curveFitting=1;orthogonalLoop=1;jettySize=auto;html=1;fontFamily=Architects Daughter;fontSource=https%3A%2F%2Ffonts.googleapis.com%2Fcss%3Ffamily%3DArchitects%2BDaughter;fontSize=16;" edge="1" parent="1" source="cXZ953Jf6Xyzj8En-9Kt-45" target="cXZ953Jf6Xyzj8En-9Kt-53">
          <mxGeometry relative="1" as="geometry" />
        </mxCell>
        <mxCell id="cXZ953Jf6Xyzj8En-9Kt-45" value="tampilkan &quot; hasil konversi &quot;" style="shape=parallelogram;perimeter=parallelogramPerimeter;whiteSpace=wrap;html=1;fixedSize=1;sketch=1;hachureGap=4;jiggle=2;curveFitting=1;fontFamily=Architects Daughter;fontSource=https%3A%2F%2Ffonts.googleapis.com%2Fcss%3Ffamily%3DArchitects%2BDaughter;fontSize=20;" vertex="1" parent="1">
          <mxGeometry x="-190" y="2120" width="190" height="100" as="geometry" />
        </mxCell>
        <mxCell id="cXZ953Jf6Xyzj8En-9Kt-46" style="edgeStyle=orthogonalEdgeStyle;rounded=0;sketch=1;hachureGap=4;jiggle=2;curveFitting=1;orthogonalLoop=1;jettySize=auto;html=1;exitX=0.25;exitY=1;exitDx=0;exitDy=0;fontFamily=Architects Daughter;fontSource=https%3A%2F%2Ffonts.googleapis.com%2Fcss%3Ffamily%3DArchitects%2BDaughter;fontSize=16;" edge="1" parent="1" source="cXZ953Jf6Xyzj8En-9Kt-10" target="cXZ953Jf6Xyzj8En-9Kt-10">
          <mxGeometry relative="1" as="geometry" />
        </mxCell>
        <mxCell id="cXZ953Jf6Xyzj8En-9Kt-53" value="End" style="strokeWidth=2;html=1;shape=mxgraph.flowchart.start_1;whiteSpace=wrap;sketch=1;hachureGap=4;jiggle=2;curveFitting=1;fontFamily=Architects Daughter;fontSource=https%3A%2F%2Ffonts.googleapis.com%2Fcss%3Ffamily%3DArchitects%2BDaughter;fontSize=20;" vertex="1" parent="1">
          <mxGeometry x="-180" y="2290" width="170" height="100" as="geometry" />
        </mxCell>
      </root>
    </mxGraphModel>
  </diagram>
</mxfile>
